<svg width="37" height="9" viewBox="0 0 37 9" fill="none" xmlns="http://www.w3.org/2000/svg">
<path d="M2.988 8.076C2.404 8.076 1.884 7.948 1.428 7.692C0.971998 7.428 0.619998 7.076 0.371998 6.636C0.123998 6.196 -1.90735e-06 5.716 -1.90735e-06 5.196C-1.90735e-06 4.652 0.111998 4.144 0.335998 3.672C0.567998 3.192 0.887998 2.808 1.296 2.52C1.704 2.232 2.172 2.088 2.7 2.088C3.18 2.088 3.588 2.18 3.924 2.364C4.268 2.548 4.524 2.768 4.692 3.024C4.868 3.28 4.956 3.508 4.956 3.708C4.956 3.852 4.86 3.98 4.668 4.092L0.947998 6.216C1.148 6.6 1.42 6.892 1.764 7.092C2.108 7.284 2.512 7.38 2.976 7.38C3.232 7.38 3.5 7.316 3.78 7.188C4.068 7.06 4.296 6.908 4.464 6.732C4.52 6.652 4.6 6.612 4.704 6.612C4.808 6.612 4.892 6.648 4.956 6.72C5.028 6.784 5.064 6.868 5.064 6.972C5.064 7.052 5.032 7.132 4.968 7.212C4.752 7.46 4.456 7.668 4.08 7.836C3.712 7.996 3.348 8.076 2.988 8.076ZM4.212 3.612C4.1 3.34 3.924 3.136 3.684 3C3.444 2.864 3.12 2.796 2.712 2.796C2.328 2.796 1.984 2.904 1.68 3.12C1.376 3.328 1.136 3.612 0.959998 3.972C0.791998 4.332 0.703998 4.728 0.695998 5.16C0.695998 5.32 0.703998 5.448 0.719998 5.544L4.212 3.612ZM7.93172 8.1C7.47572 8.1 7.07972 8.008 6.74372 7.824C6.41572 7.632 6.16372 7.412 5.98772 7.164C5.81972 6.908 5.73572 6.692 5.73572 6.516C5.73572 6.412 5.76772 6.328 5.83172 6.264C5.90372 6.192 5.99172 6.156 6.09572 6.156C6.27172 6.156 6.38372 6.24 6.43172 6.408C6.54372 6.728 6.73172 6.976 6.99572 7.152C7.25972 7.328 7.58372 7.416 7.96772 7.416C8.35172 7.416 8.66772 7.312 8.91572 7.104C9.16372 6.896 9.28772 6.648 9.28772 6.36C9.28772 6.192 9.24772 6.052 9.16772 5.94C9.09572 5.82 8.95972 5.708 8.75972 5.604C8.56772 5.5 8.28372 5.392 7.90772 5.28C7.25972 5.08 6.79172 4.848 6.50372 4.584C6.21572 4.32 6.07172 3.972 6.07172 3.54C6.07172 3.108 6.24772 2.76 6.59972 2.496C6.95972 2.224 7.47172 2.088 8.13572 2.088C8.73572 2.088 9.19572 2.212 9.51572 2.46C9.84372 2.7 10.0077 3.032 10.0077 3.456C10.0077 3.648 9.97572 3.796 9.91172 3.9C9.84772 3.996 9.75572 4.044 9.63572 4.044C9.53172 4.044 9.44372 4.012 9.37172 3.948C9.29972 3.876 9.26372 3.796 9.26372 3.708C9.26372 3.668 9.26772 3.624 9.27572 3.576C9.29172 3.528 9.29972 3.484 9.29972 3.444C9.29972 3.228 9.20372 3.06 9.01172 2.94C8.81972 2.812 8.52772 2.748 8.13572 2.748C7.70372 2.748 7.36772 2.82 7.12772 2.964C6.89572 3.1 6.77972 3.296 6.77972 3.552C6.77972 3.8 6.87972 3.996 7.07972 4.14C7.28772 4.284 7.64372 4.44 8.14772 4.608C8.62772 4.768 8.99572 4.92 9.25172 5.064C9.51572 5.208 9.70372 5.38 9.81572 5.58C9.93572 5.772 9.99572 6.02 9.99572 6.324C9.99572 6.62 9.90772 6.904 9.73172 7.176C9.56372 7.448 9.32372 7.672 9.01172 7.848C8.69972 8.016 8.33972 8.1 7.93172 8.1ZM13.5847 8.076C13.1207 8.076 12.6847 7.964 12.2767 7.74C11.8767 7.508 11.5567 7.192 11.3167 6.792C11.0847 6.392 10.9687 5.952 10.9687 5.472C10.9687 4.928 11.0927 4.396 11.3407 3.876C11.5967 3.348 11.9327 2.92 12.3487 2.592C12.7647 2.256 13.1967 2.088 13.6447 2.088C14.0607 2.088 14.4007 2.156 14.6647 2.292C14.9367 2.428 15.1967 2.64 15.4447 2.928C15.5087 2.992 15.5407 3.076 15.5407 3.18C15.5407 3.284 15.5047 3.372 15.4327 3.444C15.3687 3.516 15.2847 3.552 15.1807 3.552C15.0687 3.552 14.9767 3.508 14.9047 3.42C14.7287 3.212 14.5487 3.056 14.3647 2.952C14.1807 2.84 13.9487 2.784 13.6687 2.784C13.3487 2.784 13.0367 2.912 12.7327 3.168C12.4287 3.424 12.1807 3.76 11.9887 4.176C11.7967 4.584 11.7007 5.008 11.7007 5.448C11.7007 5.848 11.7927 6.196 11.9767 6.492C12.1687 6.78 12.4087 7 12.6967 7.152C12.9927 7.304 13.2887 7.38 13.5847 7.38C14.2727 7.38 14.8087 7.104 15.1927 6.552C15.2967 6.408 15.4087 6.336 15.5287 6.336C15.6327 6.336 15.7207 6.372 15.7927 6.444C15.8647 6.516 15.9007 6.6 15.9007 6.696C15.9007 6.776 15.8607 6.868 15.7807 6.972C15.5727 7.276 15.2727 7.536 14.8807 7.752C14.4887 7.968 14.0567 8.076 13.5847 8.076ZM17.8378 8.076C17.6858 8.076 17.5498 8.02 17.4298 7.908C17.3178 7.796 17.2618 7.668 17.2618 7.524V3.18H16.7098C16.5658 3.18 16.4378 3.124 16.3258 3.012C16.2138 2.9 16.1578 2.772 16.1578 2.628C16.1578 2.476 16.2138 2.344 16.3258 2.232C16.4378 2.12 16.5618 2.064 16.6978 2.064H17.2738C17.3058 1.304 17.5098 0.771997 17.8858 0.467998C18.2698 0.155997 18.8818 -2.86102e-06 19.7218 -2.86102e-06C19.9458 -2.86102e-06 20.1178 0.0399973 20.2378 0.119998C20.3578 0.199998 20.4178 0.343997 20.4178 0.551997C20.4178 0.711998 20.3658 0.847998 20.2618 0.959998C20.1658 1.064 20.0298 1.116 19.8538 1.116C19.4938 1.116 19.2178 1.14 19.0258 1.188C18.8418 1.228 18.7018 1.316 18.6058 1.452C18.5098 1.588 18.4498 1.792 18.4258 2.064L19.6498 2.076C19.7778 2.076 19.8978 2.132 20.0098 2.244C20.1298 2.356 20.1898 2.484 20.1898 2.628C20.1898 2.772 20.1338 2.9 20.0218 3.012C19.9178 3.124 19.7938 3.18 19.6498 3.18H18.4138V7.524C18.4138 7.668 18.3538 7.796 18.2338 7.908C18.1218 8.02 17.9898 8.076 17.8378 8.076ZM23.2589 8.076C22.6909 8.076 22.1789 7.956 21.7229 7.716C21.2749 7.468 20.9229 7.12 20.6669 6.672C20.4109 6.216 20.2829 5.68 20.2829 5.064C20.2829 4.56 20.3949 4.08 20.6189 3.624C20.8509 3.16 21.1709 2.788 21.5789 2.508C21.9949 2.228 22.4669 2.088 22.9949 2.088C23.4829 2.088 23.8989 2.188 24.2429 2.388C24.5949 2.58 24.8589 2.812 25.0349 3.084C25.2109 3.356 25.2989 3.6 25.2989 3.816C25.2989 3.92 25.2669 4.02 25.2029 4.116C25.1389 4.212 25.0469 4.296 24.9269 4.368L21.7109 6.216C21.8229 6.464 22.0189 6.656 22.2989 6.792C22.5869 6.928 22.9069 6.996 23.2589 6.996C23.7229 6.996 24.1189 6.824 24.4469 6.48C24.5749 6.352 24.7069 6.288 24.8429 6.288C25.0029 6.288 25.1349 6.34 25.2389 6.444C25.3509 6.548 25.4069 6.676 25.4069 6.828C25.4069 6.956 25.3589 7.076 25.2629 7.188C25.0389 7.436 24.7389 7.648 24.3629 7.824C23.9949 7.992 23.6269 8.076 23.2589 8.076ZM24.1109 3.672C24.0149 3.504 23.8789 3.38 23.7029 3.3C23.5269 3.212 23.3189 3.168 23.0789 3.168C22.6229 3.168 22.2389 3.324 21.9269 3.636C21.6229 3.948 21.4469 4.332 21.3989 4.788C21.3829 4.908 21.3749 5.052 21.3749 5.22L24.1109 3.672ZM27.1374 8.076C26.9854 8.076 26.8494 8.02 26.7294 7.908C26.6174 7.796 26.5614 7.668 26.5614 7.524V2.652C26.5614 2.492 26.6214 2.356 26.7414 2.244C26.8614 2.132 27.0014 2.076 27.1614 2.076C27.3134 2.076 27.4414 2.132 27.5454 2.244C27.6574 2.356 27.7134 2.492 27.7134 2.652V3.564C27.9374 3.084 28.2214 2.72 28.5654 2.472C28.9094 2.216 29.2854 2.088 29.6934 2.088C30.1414 2.088 30.4974 2.192 30.7614 2.4C31.0254 2.608 31.2174 2.952 31.3374 3.432C31.4574 3.904 31.5174 4.56 31.5174 5.4L31.5054 7.5C31.5054 7.652 31.4534 7.788 31.3494 7.908C31.2454 8.02 31.1134 8.076 30.9534 8.076C30.8014 8.076 30.6654 8.02 30.5454 7.908C30.4334 7.788 30.3774 7.656 30.3774 7.512V5.52C30.3774 4.896 30.3494 4.416 30.2934 4.08C30.2374 3.744 30.1534 3.516 30.0414 3.396C29.9294 3.268 29.7774 3.204 29.5854 3.204C29.3454 3.204 29.1054 3.308 28.8654 3.516C28.6254 3.716 28.4014 4.004 28.1934 4.38C28.0094 4.708 27.8814 5.028 27.8094 5.34C27.7374 5.652 27.7014 6.028 27.7014 6.468V7.476C27.7014 7.652 27.6494 7.796 27.5454 7.908C27.4494 8.02 27.3134 8.076 27.1374 8.076ZM34.1211 8.088C33.9691 8.088 33.8331 8.032 33.7131 7.92C33.6011 7.808 33.5451 7.676 33.5451 7.524V3.24H32.5971C32.4371 3.24 32.3011 3.184 32.1891 3.072C32.0771 2.952 32.0211 2.816 32.0211 2.664C32.0211 2.488 32.0811 2.348 32.2011 2.244C32.3211 2.132 32.4611 2.076 32.6211 2.076H33.5451V0.791998C33.5451 0.639998 33.6011 0.503998 33.7131 0.383997C33.8251 0.263997 33.9611 0.203997 34.1211 0.203997C34.2891 0.203997 34.4251 0.263997 34.5291 0.383997C34.6411 0.495997 34.6971 0.631997 34.6971 0.791998V2.076H35.7171C35.8771 2.076 36.0131 2.132 36.1251 2.244C36.2371 2.356 36.2931 2.496 36.2931 2.664C36.2931 2.816 36.2371 2.952 36.1251 3.072C36.0131 3.184 35.8771 3.24 35.7171 3.24H34.6971V7.524C34.6971 7.676 34.6411 7.808 34.5291 7.92C34.4171 8.032 34.2811 8.088 34.1211 8.088Z" fill="white"/>
</svg>